<svg width="58" height="58" viewBox="0 0 58 58" fill="none" xmlns="http://www.w3.org/2000/svg">
<g filter="url(#filter0_d_1_17)">
<rect x="4" width="50" height="50" rx="25" fill="#FDFDFD" fill-opacity="0.6"/>
<path d="M26.2427 17.6557C25.9639 17.4965 25.6482 17.4132 25.3271 17.4143C25.0061 17.4154 24.691 17.5008 24.4133 17.6619C24.1356 17.823 23.9051 18.0542 23.7448 18.3324C23.5845 18.6106 23.5001 18.926 23.5 19.247V30.7549C23.5001 31.0759 23.5845 31.3913 23.7448 31.6695C23.9051 31.9477 24.1356 32.1789 24.4133 32.34C24.691 32.5012 25.0061 32.5865 25.3271 32.5876C25.6482 32.5887 25.9639 32.5055 26.2427 32.3462L36.3113 26.5914C36.5917 26.431 36.8248 26.1993 36.9869 25.9199C37.1489 25.6404 37.2343 25.3231 37.2343 25C37.2343 24.677 37.1489 24.3597 36.9869 24.0802C36.8248 23.8008 36.5917 23.5691 36.3113 23.4087L26.2427 17.6557Z" fill="#1A3E3E"/>
</g>
<defs>
<filter id="filter0_d_1_17" x="0" y="0" width="58" height="58" filterUnits="userSpaceOnUse" color-interpolation-filters="sRGB">
<feFlood flood-opacity="0" result="BackgroundImageFix"/>
<feColorMatrix in="SourceAlpha" type="matrix" values="0 0 0 0 0 0 0 0 0 0 0 0 0 0 0 0 0 0 127 0" result="hardAlpha"/>
<feOffset dy="4"/>
<feGaussianBlur stdDeviation="2"/>
<feComposite in2="hardAlpha" operator="out"/>
<feColorMatrix type="matrix" values="0 0 0 0 0 0 0 0 0 0 0 0 0 0 0 0 0 0 0.25 0"/>
<feBlend mode="normal" in2="BackgroundImageFix" result="effect1_dropShadow_1_17"/>
<feBlend mode="normal" in="SourceGraphic" in2="effect1_dropShadow_1_17" result="shape"/>
</filter>
</defs>
</svg>
